<svg width="60" height="60" viewBox="0 0 60 60" fill="none" xmlns="http://www.w3.org/2000/svg">
<path d="M30 60C46.5685 60 60 46.5685 60 30C60 13.4315 46.5685 0 30 0C13.4315 0 0 13.4315 0 30C0 46.5685 13.4315 60 30 60Z" fill="#E4E4E4"/>
<path d="M30 55C43.8071 55 55 43.8071 55 30C55 16.1929 43.8071 5 30 5C16.1929 5 5 16.1929 5 30C5 43.8071 16.1929 55 30 55Z" fill="#00D254"/>
<path d="M27.8756 39.0406C27.831 39.0406 27.7862 39.0395 27.7414 39.0373C27.346 39.0183 26.9594 38.9139 26.6082 38.7314C26.2569 38.5489 25.9493 38.2926 25.7064 37.98L21.8715 33.0494C21.425 32.474 21.2249 31.7449 21.3152 31.0222C21.4056 30.2994 21.7789 29.642 22.3533 29.1941L22.4912 29.0867C23.0667 28.6402 23.7958 28.4402 24.5186 28.5305C25.2414 28.6208 25.8989 28.9941 26.3468 29.5685C26.5629 29.8464 26.8366 30.0743 27.149 30.2367C27.4614 30.399 27.8052 30.4919 28.1568 30.5091C28.5084 30.5262 28.8596 30.4672 29.1863 30.336C29.5131 30.2048 29.8076 30.0046 30.0497 29.749L37.8365 21.5293C38.0846 21.2674 38.3819 21.0569 38.7114 20.9098C39.0409 20.7628 39.3961 20.6821 39.7568 20.6724C40.1175 20.6626 40.4765 20.724 40.8135 20.8531C41.1504 20.9821 41.4586 21.1763 41.7206 21.4244L41.8477 21.5449C42.3766 22.046 42.6848 22.7367 42.7045 23.4651C42.7241 24.1934 42.4536 24.8998 41.9525 25.4287L29.8695 38.1826C29.613 38.4537 29.3038 38.6696 28.961 38.8171C28.6182 38.9647 28.2489 39.0407 27.8756 39.0406V39.0406Z" fill="white"/>
</svg>
