<svg width="255" height="241" viewBox="0 0 255 241" fill="none" xmlns="http://www.w3.org/2000/svg">
<path d="M123.122 165.568L123.974 165.587L122.346 239.401L121.494 239.382L123.122 165.568Z" fill="#3F3D56"/>
<path d="M123.104 198.251C123.181 197.989 124.946 191.764 121.123 185.645L120.401 186.095C124.016 191.88 122.304 197.951 122.286 198.012L123.104 198.251V198.251Z" fill="#3F3D56"/>
<path d="M120.824 186.117C120.824 186.117 121.987 178.191 111.28 176.016C109.049 175.563 106.953 175.253 105.03 175.047C102.761 174.803 101.876 177.902 103.926 178.903C106.894 180.353 109.687 182.179 111.142 184.342C115.156 190.307 120.824 186.117 120.824 186.117V186.117Z" fill="#00D254"/>
<path d="M122.002 221.171L122.82 220.933C122.802 220.872 121.09 214.801 124.706 209.015L123.983 208.565C120.16 214.684 121.925 220.909 122.002 221.171V221.171Z" fill="#3F3D56"/>
<path d="M124.282 209.037C124.282 209.037 123.119 201.112 133.826 198.936C136.057 198.483 138.154 198.173 140.076 197.967C142.345 197.723 143.23 200.823 141.18 201.823C138.212 203.273 135.419 205.1 133.964 207.262C129.95 213.228 124.282 209.037 124.282 209.037H124.282Z" fill="#00D254"/>
<path d="M109.38 155.32C107.225 154.753 105.21 153.765 105.276 152.788C105.356 151.627 108.348 150.849 110.929 150.731C108.982 149.211 107.193 147.11 107.74 146.16C108.243 145.286 110.583 145.625 112.741 146.394C111.464 144.572 110.566 142.518 111.25 141.816C112.102 140.94 115.126 142.451 117.189 144.121C116.788 141.52 116.991 138.235 118.16 137.938C119.139 137.69 120.525 139.6 121.476 141.681C121.896 139.497 122.747 137.424 123.729 137.424C125.127 137.424 126.261 141.631 126.261 144.372C126.261 144.527 126.257 144.673 126.25 144.812C126.39 144.65 126.551 144.48 126.735 144.303C128.705 142.393 132.52 140.273 133.494 141.274C134.178 141.977 133.28 144.03 132.003 145.853C134.162 145.083 136.501 144.745 137.004 145.618C137.68 146.792 134.791 149.722 132.443 151.143C132.584 151.126 132.733 151.112 132.891 151.101C135.631 150.914 139.915 151.757 140.011 153.149C140.077 154.126 138.062 155.114 135.907 155.681C138.053 156.486 140.057 157.736 139.875 158.727C139.654 159.929 136.286 160.35 133.638 160.104C135.616 161.998 137.762 165.391 136.866 166.385C136.21 167.114 134.096 166.36 132.187 165.212C133.103 167.309 133.601 169.615 132.762 170.175C131.653 170.915 128.611 168.339 127.007 166.122C127.171 168.834 126.52 172.56 125.23 172.707C124.255 172.818 123.174 170.854 122.508 168.732C121.8 170.907 120.639 172.962 119.639 172.826C118.338 172.649 117.771 168.83 118.014 166.116C116.36 168.241 113.576 170.515 112.525 169.814C111.686 169.254 112.184 166.948 113.1 164.851C111.191 165.999 109.077 166.753 108.421 166.024C107.525 165.03 109.671 161.637 111.649 159.743C109.001 159.989 105.633 159.568 105.412 158.366C105.23 157.375 107.234 156.125 109.38 155.32V155.32ZM120.984 162.991C121.538 163.066 122.045 163.174 122.43 163.449C122.839 163.044 123.437 162.92 124.101 162.845C124.845 162.76 125.522 162.752 126.037 163.18C126.226 162.657 126.69 162.285 127.23 161.924C127.695 161.614 128.146 161.36 128.617 161.31C128.654 160.736 129.019 160.248 129.466 159.752C129.751 159.435 130.036 159.152 130.352 158.963C129.896 158.408 129.949 157.707 130.09 156.938C130.191 156.389 130.322 155.889 130.614 155.518C130.227 155.092 130.131 154.49 130.085 153.824C130.036 153.097 130.056 152.438 130.477 151.947C129.39 152.085 128.865 151.41 128.378 150.563C128.099 150.079 127.875 149.613 127.858 149.141C127.287 149.065 126.824 148.668 126.358 148.19C125.96 147.781 125.621 147.376 125.494 146.91C125.038 147.292 124.415 147.35 123.729 147.35C123.06 147.35 122.452 147.295 121.999 146.939C121.648 147.255 121.157 147.42 120.615 147.557C120.098 147.689 119.61 147.777 119.166 147.688C119.004 148.058 118.716 148.393 118.387 148.731C117.921 149.21 117.458 149.607 116.886 149.682C116.869 150.155 116.645 150.621 116.366 151.104C116.039 151.674 115.694 152.166 115.174 152.386C115.234 152.716 115.228 153.08 115.202 153.463C115.156 154.129 115.06 154.731 114.673 155.157C114.966 155.528 115.096 156.028 115.197 156.577C115.338 157.346 115.391 158.047 114.935 158.602C115.251 158.791 115.536 159.074 115.821 159.391C116.268 159.887 116.633 160.375 116.67 160.95C117.141 160.999 117.592 161.253 118.057 161.563C118.691 161.987 119.22 162.426 119.322 163.108C119.798 162.877 120.368 162.907 120.984 162.991V162.991Z" fill="#00D254"/>
<path d="M122.463 164.315C117.468 164.315 113.419 160.275 113.419 155.291C113.419 150.307 117.468 146.267 122.463 146.267C127.457 146.267 131.507 150.307 131.507 155.291C131.507 160.275 127.457 164.315 122.463 164.315Z" fill="#3F3D56"/>
<path d="M229.833 240.07C229.833 240.35 229.607 240.575 229.326 240.575H6.92542C6.64439 240.575 6.41869 240.35 6.41869 240.07C6.41869 239.789 6.64439 239.564 6.92542 239.564H229.326C229.607 239.564 229.833 239.789 229.833 240.07V240.07Z" fill="#3F3D56"/>
<path d="M210.103 66.8871L210.954 66.9058L207.122 240.675L206.27 240.657L210.103 66.8871Z" fill="#3F3D56"/>
<path d="M208.93 143.653C208.973 143.504 213.195 128.63 204.331 114.443L203.608 114.892C212.273 128.76 208.155 143.268 208.112 143.414L208.93 143.653V143.653Z" fill="#3F3D56"/>
<path d="M204.117 115.25C204.117 115.25 206.853 96.591 181.648 91.4701C176.397 90.4033 171.46 89.6742 166.935 89.1884C161.593 88.6149 159.51 95.9105 164.335 98.267C171.324 101.68 177.897 105.979 181.324 111.071C190.774 125.114 204.117 115.25 204.117 115.25V115.25Z" fill="#00D254"/>
<path d="M207.443 197.61L208.26 197.371C208.218 197.226 204.108 182.705 212.764 168.85L212.042 168.4C203.177 182.588 207.399 197.462 207.443 197.61Z" fill="#3F3D56"/>
<path d="M212.256 169.208C212.256 169.208 209.52 150.549 234.725 145.428C239.976 144.361 244.912 143.632 249.438 143.146C254.779 142.573 256.863 149.868 252.037 152.225C245.049 155.637 238.475 159.937 235.049 165.029C225.599 179.072 212.256 169.208 212.256 169.208V169.208Z" fill="#00D254"/>
<path d="M177.175 42.7477C172.101 41.413 167.357 39.0873 167.514 36.7866C167.701 34.0536 174.745 32.2223 180.821 31.9436C176.238 28.3659 172.027 23.4202 173.315 21.1835C174.499 19.1271 180.006 19.9237 185.088 21.7348C182.081 17.4449 179.967 12.611 181.577 10.9567C183.582 8.89605 190.701 12.4528 195.559 16.3843C194.614 10.2594 195.092 2.52814 197.845 1.82866C200.148 1.24349 203.413 5.74084 205.651 10.6399C206.64 5.49871 208.643 0.617676 210.954 0.617676C214.247 0.617676 216.916 10.5222 216.916 16.9749C216.916 17.3397 216.906 17.6831 216.889 18.0111C217.22 17.6289 217.598 17.2295 218.03 16.811C222.67 12.3154 231.65 7.32554 233.944 9.68214C235.554 11.3364 233.44 16.1703 230.433 20.4602C235.515 18.6491 241.022 17.8525 242.206 19.9089C243.797 22.6719 236.997 29.5695 231.47 32.9144C231.802 32.8745 232.151 32.8408 232.522 32.8156C238.975 32.3763 249.06 34.3589 249.284 37.6364C249.442 39.937 244.697 42.2627 239.624 43.5974C244.675 45.4919 249.394 48.4354 248.966 50.7681C248.446 53.5993 240.517 54.5904 234.282 54.0103C238.94 58.4691 243.99 66.4566 241.882 68.7975C240.338 70.513 235.36 68.7374 230.866 66.0358C233.023 70.9711 234.195 76.3997 232.219 77.7183C229.608 79.4609 222.448 73.3959 218.672 68.1773C219.057 74.5618 217.526 83.3327 214.488 83.6788C212.192 83.9405 209.647 79.3176 208.08 74.3215C206.413 79.4424 203.681 84.2803 201.326 83.9596C198.264 83.5427 196.929 74.5523 197.5 68.1633C193.606 73.1671 187.052 78.5187 184.579 76.8686C182.604 75.55 183.775 70.1214 185.932 65.1861C181.438 67.8877 176.461 69.6633 174.916 67.9478C172.808 65.6069 177.859 57.6193 182.516 53.1605C176.282 53.7407 168.353 52.7496 167.833 49.9184C167.404 47.5857 172.123 44.6422 177.175 42.7477L177.175 42.7477ZM204.492 60.8067C205.797 60.9842 206.989 61.2378 207.896 61.8853C208.859 60.931 210.266 60.6404 211.831 60.4622C213.583 60.2626 215.175 60.2433 216.389 61.2519C216.833 60.02 217.925 59.1449 219.197 58.2957C220.291 57.5655 221.352 56.9661 222.461 56.8505C222.548 55.4989 223.408 54.3501 224.46 53.1813C225.131 52.4361 225.802 51.7698 226.547 51.3242C225.473 50.0185 225.597 48.3683 225.929 46.5572C226.166 45.2654 226.475 44.0884 227.164 43.2141C226.253 42.2103 226.026 40.7946 225.919 39.2271C225.802 37.5156 225.85 35.9637 226.84 34.8082C224.281 35.133 223.047 33.5425 221.899 31.549C221.243 30.4103 220.716 29.3134 220.676 28.2015C219.33 28.0232 218.24 27.0891 217.143 25.962C216.206 24.9992 215.409 24.0458 215.11 22.9485C214.036 23.8489 212.571 23.9852 210.954 23.9852C209.379 23.9852 207.948 23.8558 206.883 23.0167C206.055 23.7627 204.899 24.1496 203.624 24.4737C202.406 24.783 201.257 24.9899 200.212 24.7817C199.831 25.6512 199.152 26.4407 198.378 27.2366C197.281 28.3637 196.191 29.2978 194.845 29.4761C194.805 30.588 194.278 31.6849 193.622 32.8236C192.85 34.164 192.04 35.323 190.814 35.8401C190.957 36.6187 190.942 37.4757 190.88 38.3774C190.773 39.9449 190.546 41.3606 189.634 42.3643C190.324 43.2387 190.632 44.4157 190.869 45.7075C191.202 47.5185 191.326 49.1688 190.251 50.4744C190.996 50.9201 191.667 51.5864 192.338 52.3316C193.391 53.5004 194.25 54.6492 194.337 56.0008C195.446 56.1164 196.507 56.7158 197.601 57.446C199.095 58.4432 200.34 59.477 200.579 61.0818C201.7 60.5392 203.043 60.6093 204.492 60.8067V60.8067Z" fill="#00D254"/>
<path d="M207.973 63.9225C196.215 63.9225 186.682 54.4115 186.682 42.6792C186.682 30.9469 196.215 21.436 207.973 21.436C219.732 21.436 229.264 30.9469 229.264 42.6792C229.264 54.4115 219.732 63.9225 207.973 63.9225Z" fill="#3F3D56"/>
<path d="M11.2591 198.712L12.1105 198.73L11.1947 240.25L10.3432 240.232L11.2591 198.712Z" fill="#3F3D56"/>
<path d="M11.6138 217.152C11.6581 217.001 12.6731 213.422 10.479 209.91L9.75624 210.36C11.7427 213.539 10.806 216.88 10.7965 216.913L11.6138 217.152V217.152Z" fill="#3F3D56"/>
<path d="M10.1528 210.274C10.1528 210.274 10.8066 205.816 4.78411 204.593C3.52943 204.338 2.34992 204.163 1.26867 204.047C-0.00762647 203.91 -0.50549 205.654 0.647486 206.217C2.31726 207.032 3.88797 208.059 4.70666 209.276C6.9646 212.631 10.1528 210.274 10.1528 210.274V210.274Z" fill="#00D254"/>
<path d="M10.6366 230.044L11.4539 229.806C11.4444 229.773 10.5077 226.432 12.4941 223.253L11.7714 222.803C9.57724 226.315 10.5923 229.894 10.6366 230.044V230.044Z" fill="#3F3D56"/>
<path d="M12.0975 223.167C12.0975 223.167 11.4438 218.709 17.4662 217.485C18.7209 217.23 19.9004 217.056 20.9817 216.94C22.258 216.803 22.7558 218.546 21.6028 219.109C19.9331 219.925 18.3624 220.952 17.5437 222.169C15.2857 225.524 12.0975 223.167 12.0975 223.167V223.167Z" fill="#00D254"/>
<path d="M3.71531 192.951C2.50306 192.632 1.36944 192.076 1.40704 191.527C1.4517 190.874 3.1347 190.436 4.58662 190.369C3.49148 189.515 2.48526 188.333 2.79298 187.798C3.07588 187.307 4.3919 187.497 5.60612 187.93C4.88757 186.905 4.38241 185.75 4.76714 185.355C5.2464 184.862 6.94731 185.712 8.10812 186.652C7.88214 185.188 7.99637 183.341 8.65424 183.174C9.20461 183.034 9.98464 184.109 10.5194 185.279C10.7558 184.051 11.2343 182.884 11.7865 182.884C12.5732 182.884 13.2109 185.251 13.2109 186.793C13.2109 186.88 13.2086 186.962 13.2046 187.04C13.2836 186.949 13.3741 186.854 13.4773 186.754C14.5858 185.679 16.7316 184.487 17.2797 185.05C17.6644 185.446 17.1593 186.601 16.4407 187.626C17.6549 187.193 18.971 187.002 19.2539 187.494C19.634 188.154 18.0092 189.802 16.6884 190.601C16.7678 190.592 16.8512 190.584 16.94 190.578C18.4817 190.473 20.8915 190.946 20.945 191.73C20.9826 192.279 19.849 192.835 18.6368 193.154C19.8437 193.607 20.9713 194.31 20.8689 194.867C20.7447 195.544 18.8501 195.781 17.3604 195.642C18.4733 196.707 19.6801 198.616 19.1765 199.175C18.8074 199.585 17.6181 199.161 16.5443 198.515C17.0596 199.695 17.3395 200.992 16.8675 201.307C16.2436 201.723 14.5328 200.274 13.6307 199.027C13.7226 200.552 13.3568 202.648 12.6309 202.731C12.0822 202.793 11.4742 201.689 11.0997 200.495C10.7015 201.719 10.0487 202.875 9.486 202.798C8.75429 202.698 8.43529 200.55 8.57178 199.024C7.6413 200.219 6.07534 201.498 5.48459 201.104C5.01254 200.789 5.29246 199.491 5.80783 198.312C4.73399 198.958 3.54468 199.382 3.17563 198.972C2.67201 198.413 3.87877 196.504 4.99167 195.439C3.50199 195.577 1.60738 195.341 1.48316 194.664C1.38082 194.107 2.5084 193.404 3.71531 192.951V192.951ZM10.2426 197.266C10.5542 197.308 10.8391 197.369 11.0558 197.524C11.286 197.296 11.6222 197.226 11.996 197.184C12.4146 197.136 12.7949 197.131 13.085 197.372C13.1911 197.078 13.4521 196.869 13.7561 196.666C14.0175 196.491 14.271 196.348 14.536 196.321C14.5567 195.998 14.7622 195.723 15.0136 195.444C15.174 195.266 15.3343 195.107 15.5123 195C15.2555 194.688 15.2851 194.294 15.3646 193.861C15.4213 193.552 15.4949 193.271 15.6597 193.062C15.4419 192.822 15.3877 192.484 15.3621 192.11C15.3341 191.701 15.3457 191.33 15.5823 191.054C14.9709 191.131 14.6759 190.751 14.4016 190.275C14.245 190.003 14.119 189.741 14.1094 189.475C13.7879 189.433 13.5274 189.209 13.2653 188.94C13.0414 188.71 12.8509 188.482 12.7794 188.22C12.5228 188.435 12.1727 188.468 11.7865 188.468C11.4102 188.468 11.0683 188.437 10.8137 188.236C10.616 188.415 10.3398 188.507 10.035 188.585C9.7441 188.658 9.46949 188.708 9.21981 188.658C9.12866 188.866 8.9666 189.054 8.78151 189.245C8.51939 189.514 8.25892 189.737 7.93739 189.78C7.92781 190.045 7.80187 190.308 7.64521 190.58C7.4608 190.9 7.26712 191.177 6.97418 191.3C7.00838 191.486 7.00474 191.691 6.99 191.907C6.96439 192.281 6.91018 192.619 6.69239 192.859C6.85716 193.068 6.93079 193.349 6.98746 193.658C7.06692 194.091 7.09653 194.485 6.83973 194.797C7.01772 194.904 7.17813 195.063 7.33845 195.241C7.58989 195.52 7.79534 195.795 7.81604 196.118C8.08104 196.145 8.33454 196.288 8.59595 196.463C8.95297 196.701 9.25038 196.948 9.3075 197.332C9.57541 197.202 9.89611 197.219 10.2426 197.266V197.266Z" fill="#00D254"/>
<path d="M11.0743 198.01C8.2647 198.01 5.98708 195.738 5.98708 192.934C5.98708 190.131 8.2647 187.859 11.0743 187.859C13.8839 187.859 16.1615 190.131 16.1615 192.934C16.1615 195.738 13.8839 198.01 11.0743 198.01Z" fill="#3F3D56"/>
</svg>
