<svg width="198" height="160" viewBox="0 0 198 160" fill="none" xmlns="http://www.w3.org/2000/svg">
<g clip-path="url(#clip0_6_456)">
<path d="M190.156 3.07928e-05H130.721C127.853 -0.000109794 125.07 0.976439 122.83 2.76914C120.59 4.56185 119.026 7.06402 118.395 9.86434L88.3642 143.185C88.0367 144.639 88.0309 146.148 88.3473 147.604C88.6637 149.061 89.2947 150.431 90.196 151.618C91.0972 152.804 92.247 153.779 93.5646 154.474C94.8822 155.169 96.3358 155.568 97.8234 155.641L158.923 158.654C162.195 158.815 165.414 157.78 167.979 155.74C170.543 153.701 172.279 150.797 172.862 147.571L189.899 53.3123L191.166 53.6747L194.427 35.8089L193.122 35.4826L197.878 9.17136C198.082 8.04436 198.034 6.88625 197.74 5.77958C197.445 4.67292 196.91 3.64496 196.173 2.769C195.435 1.89303 194.514 1.19064 193.475 0.711887C192.435 0.233136 191.303 -0.0101785 190.159 -0.000710477L190.156 3.07928e-05Z" fill="#3F3D56"/>
<path d="M138.545 2.87402H131.608C129.615 2.87404 127.683 3.55604 126.131 4.80679C124.579 6.05755 123.502 7.80184 123.077 9.75011L94.2503 141.983C94.0843 142.745 94.0844 143.533 94.2506 144.294C94.4169 145.055 94.7454 145.772 95.2137 146.394C95.682 147.017 96.2791 147.531 96.9641 147.901C97.6491 148.272 98.406 148.49 99.1829 148.541L160.084 152.536C161.803 152.648 163.502 152.124 164.858 151.063C166.215 150.001 167.133 148.477 167.439 146.781L192.036 10.1054C192.196 9.22076 192.159 8.31196 191.929 7.44311C191.699 6.57425 191.281 5.76652 190.705 5.0769C190.129 4.38728 189.409 3.83259 188.595 3.45196C187.782 3.07133 186.894 2.87404 185.996 2.87402H179.415C178.778 2.87401 178.159 3.08416 177.653 3.47196C177.148 3.85976 176.784 4.40357 176.618 5.0192C176.472 5.56288 176.151 6.04312 175.704 6.38553C175.258 6.72794 174.711 6.91341 174.148 6.9132H142.904C141.803 6.91316 140.742 6.49716 139.934 5.74832C139.126 4.99949 138.63 3.973 138.545 2.87402Z" fill="white"/>
<path d="M172.211 95.3164C172.33 95.3205 172.446 95.2818 172.538 95.2075C172.63 95.1332 172.693 95.0281 172.714 94.9115L186.182 20.5171C186.195 20.4463 186.192 20.3737 186.175 20.3041C186.157 20.2344 186.124 20.1695 186.079 20.1136C186.034 20.0581 185.978 20.0133 185.914 19.9821C185.85 19.951 185.78 19.9343 185.709 19.9334L124.435 19.209H124.429C124.318 19.2099 124.21 19.2486 124.124 19.3188C124.037 19.389 123.977 19.4864 123.953 19.5952L108.076 91.5749C108.061 91.6451 108.061 91.7179 108.076 91.7882C108.091 91.8585 108.121 91.9248 108.164 91.9823C108.207 92.0394 108.262 92.0864 108.325 92.12C108.388 92.1535 108.457 92.1728 108.528 92.1764L172.211 95.3164Z" fill="#E6E6E6"/>
<path d="M119.038 100.126C118.982 100.127 118.928 100.145 118.884 100.18C118.841 100.215 118.81 100.263 118.798 100.318L118.224 102.779C118.216 102.814 118.215 102.85 118.222 102.885C118.229 102.92 118.244 102.953 118.265 102.982C118.286 103.01 118.313 103.034 118.345 103.052C118.376 103.069 118.41 103.079 118.446 103.082L150.862 105.388C150.922 105.392 150.981 105.373 151.029 105.337C151.077 105.3 151.11 105.247 151.122 105.188L151.674 102.34C151.68 102.306 151.679 102.27 151.671 102.236C151.663 102.202 151.648 102.17 151.626 102.142C151.605 102.114 151.577 102.091 151.546 102.075C151.515 102.058 151.481 102.049 151.446 102.047L119.053 100.127L119.038 100.126Z" fill="#E6E6E6"/>
<path d="M158.421 114.53C158.479 114.535 158.538 114.519 158.585 114.484C158.633 114.45 158.667 114.4 158.681 114.343L159.383 111.489C159.392 111.454 159.393 111.418 159.386 111.382C159.379 111.347 159.364 111.313 159.343 111.284C159.322 111.255 159.295 111.231 159.263 111.214C159.232 111.196 159.197 111.186 159.161 111.183L117.764 108.285C117.708 108.281 117.652 108.296 117.606 108.328C117.559 108.36 117.525 108.407 117.51 108.462L116.78 110.928C116.77 110.963 116.767 111 116.773 111.036C116.779 111.073 116.792 111.107 116.813 111.138C116.834 111.168 116.861 111.193 116.893 111.212C116.925 111.23 116.96 111.241 116.997 111.244L158.421 114.53Z" fill="#E6E6E6"/>
<path d="M156.198 123.678C156.256 123.682 156.315 123.666 156.362 123.632C156.41 123.597 156.443 123.547 156.457 123.49L157.16 120.636C157.169 120.601 157.169 120.565 157.163 120.53C157.156 120.494 157.141 120.461 157.12 120.432C157.099 120.403 157.071 120.379 157.04 120.361C157.009 120.344 156.974 120.333 156.938 120.331L115.541 117.433C115.485 117.428 115.429 117.444 115.382 117.476C115.336 117.508 115.302 117.555 115.287 117.609L114.557 120.075C114.546 120.11 114.544 120.148 114.55 120.184C114.555 120.22 114.569 120.255 114.59 120.285C114.611 120.315 114.638 120.341 114.67 120.359C114.702 120.378 114.737 120.389 114.774 120.392L156.198 123.678Z" fill="#E6E6E6"/>
<path d="M84.4239 155.881C84.4239 157.95 65.5014 158.17 42.2119 159.627C18.9432 161.082 0 157.95 0 155.881C0 153.812 19.0317 149.649 42.2119 152.134C65.5014 154.632 84.4239 153.812 84.4239 155.881Z" fill="#E6E6E6"/>
<path d="M137.132 139.315C137.191 139.321 137.25 139.306 137.299 139.271C137.347 139.237 137.381 139.186 137.395 139.129L138.88 133.183C138.889 133.148 138.89 133.111 138.883 133.076C138.877 133.041 138.862 133.008 138.842 132.979C138.821 132.949 138.794 132.925 138.763 132.907C138.732 132.89 138.697 132.879 138.661 132.876L113.24 130.736C113.18 130.732 113.122 130.749 113.074 130.784C113.026 130.819 112.992 130.871 112.978 130.929L111.711 136.635C111.703 136.669 111.703 136.705 111.71 136.739C111.717 136.774 111.732 136.806 111.752 136.834C111.773 136.863 111.799 136.886 111.83 136.904C111.86 136.921 111.894 136.932 111.929 136.935L137.132 139.315Z" fill="#00D254"/>
<path d="M34.4853 115.085C34.8054 114.866 35.0735 114.578 35.2707 114.244C35.468 113.909 35.5895 113.536 35.6267 113.149C35.664 112.763 35.6161 112.373 35.4864 112.007C35.3567 111.64 35.1484 111.307 34.8761 111.031L35.9054 88.0342L30.665 88.6228L30.9696 111.117C30.535 111.605 30.2946 112.236 30.2939 112.89C30.2932 113.544 30.5322 114.175 30.9658 114.664C31.3993 115.154 31.9972 115.467 32.646 115.544C33.2947 115.621 33.9493 115.458 34.4856 115.084L34.4853 115.085Z" fill="#A0616A"/>
<path d="M44.0455 154.013L47.0282 154.538L49.9761 143.273L46.0681 142.499L44.0455 154.013Z" fill="#A0616A"/>
<path d="M52.2944 158.322L42.9204 156.672L43.5571 153.048L49.3093 154.06C50.2698 154.229 51.124 154.773 51.6838 155.572C52.2436 156.371 52.4632 157.36 52.2943 158.322L52.2944 158.322Z" fill="#2F2E41"/>
<path d="M35.859 155.507H38.8874L40.328 143.816H35.8585L35.859 155.507Z" fill="#A0616A"/>
<path d="M44.7267 158.322L35.209 158.323L35.2088 154.642L41.0492 154.642C42.0245 154.642 42.9599 155.03 43.6495 155.72C44.3392 156.41 44.7267 157.346 44.7267 158.322Z" fill="#2F2E41"/>
<path d="M48.4935 151.317C48.4463 151.317 48.3991 151.314 48.3522 151.308L44.7878 151.015C44.6255 150.996 44.4688 150.944 44.3272 150.862C44.1856 150.781 44.062 150.671 43.964 150.54C43.8659 150.41 43.7955 150.26 43.757 150.101C43.7184 149.942 43.7125 149.777 43.7397 149.616L47.2782 132.142L45.0551 120.405C45.0369 120.31 44.985 120.224 44.9087 120.164C44.8325 120.104 44.7372 120.074 44.6403 120.078C44.5434 120.083 44.4515 120.123 44.3816 120.19C44.3117 120.258 44.2685 120.348 44.2599 120.445L40.9843 150.267C40.9537 150.581 40.8024 150.871 40.5623 151.075C40.3222 151.28 40.0121 151.383 39.6973 151.364L36.3392 151.238C36.0449 151.218 35.7685 151.09 35.562 150.879C35.3556 150.668 35.2335 150.388 35.2187 150.094L35.487 114.056L52.8968 111.878L54.113 130.677L54.1081 130.697L49.6641 150.395C49.6001 150.658 49.4501 150.891 49.2378 151.058C49.0256 151.225 48.7635 151.316 48.4935 151.317Z" fill="#2F2E41"/>
<path d="M41.2283 73.133C44.579 73.133 47.2952 70.4144 47.2952 67.0609C47.2952 63.7073 44.579 60.9888 41.2283 60.9888C37.8777 60.9888 35.1614 63.7073 35.1614 67.0609C35.1614 70.4144 37.8777 73.133 41.2283 73.133Z" fill="#A0616A"/>
<path d="M46.9447 116.798C45.9958 116.804 45.0652 116.538 44.2629 116.031C41.3234 114.192 37.986 114.923 36.2579 115.522C36.0864 115.582 35.9035 115.603 35.723 115.582C35.5424 115.561 35.3689 115.5 35.2153 115.403C35.0634 115.308 34.9352 115.179 34.84 115.027C34.7449 114.875 34.6854 114.703 34.6659 114.525L31.5236 86.434C30.997 81.7273 33.8298 77.3022 38.2592 75.912C38.4257 75.8598 38.5949 75.8103 38.7668 75.7637C40.1452 75.3897 41.5888 75.3225 42.9959 75.567C44.403 75.8114 45.7395 76.3615 46.9114 77.1786C48.105 78.0046 49.1034 79.0824 49.836 80.3361C50.5686 81.5899 51.0178 82.9891 51.1518 84.4354L53.7976 112.715C53.8156 112.898 53.7909 113.083 53.7255 113.255C53.66 113.426 53.5556 113.581 53.4204 113.705C52.4926 114.564 49.8007 116.798 46.9447 116.798Z" fill="#00D254"/>
<path d="M37.3751 92.4576L30.2858 91.6773C30.0841 91.6551 29.8895 91.5897 29.7153 91.4854C29.5412 91.3811 29.3915 91.2405 29.2765 91.0732C29.1615 90.9058 29.0839 90.7156 29.049 90.5155C29.0141 90.3154 29.0227 90.1101 29.0742 89.9136L30.8789 83.0294C30.9321 82.5134 31.0869 82.013 31.3344 81.5573C31.5819 81.1015 31.9172 80.6994 32.3209 80.3741C32.7247 80.0488 33.1888 79.8068 33.6865 79.6622C34.1842 79.5175 34.7056 79.4729 35.2206 79.5311C35.7357 79.5893 36.234 79.7491 36.687 80.0012C37.1399 80.2534 37.5384 80.5928 37.8595 81C38.1806 81.4072 38.4179 81.8741 38.5576 82.3736C38.6974 82.8731 38.7368 83.3954 38.6737 83.9102L38.9417 90.9994C38.9494 91.2024 38.9132 91.4047 38.8357 91.5925C38.7583 91.7803 38.6412 91.9491 38.4927 92.0876C38.3441 92.226 38.1674 92.3307 37.9748 92.3947C37.7821 92.4586 37.5779 92.4802 37.3761 92.4581L37.3751 92.4576Z" fill="#00D254"/>
<path d="M53.7687 114.1C54.0599 113.844 54.2914 113.527 54.4468 113.171C54.6022 112.815 54.6778 112.429 54.6682 112.041C54.6587 111.653 54.5642 111.272 54.3915 110.924C54.2187 110.576 53.9719 110.271 53.6684 110.029L51.9213 87.0762L46.7861 88.2332L49.7997 110.586C49.4271 111.123 49.2643 111.778 49.3423 112.428C49.4204 113.077 49.7337 113.675 50.223 114.108C50.7123 114.542 51.3435 114.78 51.9969 114.779C52.6502 114.777 53.2804 114.536 53.7677 114.1H53.7687Z" fill="#A0616A"/>
<path d="M44.8177 91.0151C44.6691 90.8768 44.552 90.708 44.4745 90.5203C44.397 90.3325 44.3609 90.1303 44.3686 89.9273L44.6366 82.8381C44.5788 82.3259 44.6224 81.8072 44.7649 81.3118C44.9074 80.8164 45.1459 80.354 45.467 79.9509C45.788 79.5478 46.1852 79.2119 46.636 78.9624C47.0867 78.713 47.5821 78.5548 48.0939 78.497C48.6058 78.4391 49.1239 78.4827 49.6189 78.6253C50.1139 78.7679 50.5759 79.0067 50.9787 79.328C51.3815 79.6493 51.7171 80.0469 51.9663 80.498C52.2156 80.9492 52.3736 81.445 52.4314 81.9572L54.2361 88.8415C54.2876 89.038 54.2962 89.2432 54.2613 89.4433C54.2264 89.6434 54.1488 89.8337 54.0338 90.001C53.9188 90.1684 53.7691 90.309 53.595 90.4133C53.4208 90.5175 53.2262 90.583 53.0245 90.6052L45.9352 91.3854C45.7334 91.4077 45.5291 91.3861 45.3365 91.3221C45.1438 91.2581 44.9671 91.1532 44.8187 91.0146L44.8177 91.0151Z" fill="#00D254"/>
<path d="M40.8674 73.3621C40.7593 73.362 40.6516 73.3495 40.5463 73.3247L40.5154 73.3173C35.1814 72.5015 34.0024 69.4082 33.7438 68.1169C33.476 66.7799 33.7809 65.4894 34.47 64.988C34.0943 63.8013 34.1546 62.7479 34.6496 61.8577C35.5142 60.3051 37.3868 59.781 37.6385 59.7157C39.1349 58.6108 40.9252 59.3483 41.251 59.4979C44.1458 58.4262 45.2527 59.3182 45.4523 59.5174C46.7461 59.7501 47.5348 60.2502 47.7967 61.0047C48.2885 62.4216 46.7333 64.1841 46.6668 64.2585L46.6322 64.297L44.3153 64.4075C44.0954 64.4181 43.8802 64.4747 43.6836 64.5738C43.487 64.6729 43.3135 64.8123 43.1742 64.9828C43.0349 65.1534 42.9329 65.3514 42.875 65.5639C42.8171 65.7764 42.8044 65.9988 42.8379 66.2165C42.9005 66.4974 42.9797 66.7744 43.075 67.0459C43.4702 68.2836 43.7666 69.3409 43.3848 69.7429C43.2981 69.8207 43.1914 69.8725 43.0767 69.8924C42.962 69.9123 42.8441 69.8995 42.7363 69.8554C42.374 69.7585 42.1282 69.7788 42.0057 69.916C41.8155 70.1284 41.8735 70.6663 42.1692 71.4302C42.262 71.6719 42.2869 71.9343 42.2414 72.1891C42.1959 72.4439 42.0815 72.6813 41.9108 72.8758C41.7823 73.0275 41.6224 73.1496 41.4422 73.2335C41.262 73.3175 41.0657 73.3613 40.8669 73.3621H40.8674Z" fill="#2F2E41"/>
</g>
<defs>
<clipPath id="clip0_6_456">
<rect width="198" height="160" fill="white"/>
</clipPath>
</defs>
</svg>
